M48
METRIC,LZ,000.000
;FILE_FORMAT=3:3
;TYPE=PLATED
;Layer: PTH_Through
;EasyEDA v6.5.1, 2022-03-30 11:40:58
;f7f897cffc8b4bbe8ffd8634bc846e31,7b35ab87edb5478c89a92b32cd25319b,10
;Gerber Generator version 0.2
;Holesize 1 = 0.811 mm
T01C0.811
;Holesize 2 = 1.000 mm
T02C1.000
;Holesize 3 = 1.016 mm
T03C1.016
;Holesize 4 = 4.801 mm
T04C4.801
%
G05
G90
T01
X-030480Y054483
X-033020Y054483
X-035560Y054483
T02
X-008636Y041908
X-011176Y042928
X-008636Y043948
X-011176Y044968
X-008636Y039868
X-011176Y040888
T03
X-020320Y050292
X-022860Y050292
X-025400Y050292
X-027940Y050292
X-030480Y050292
X-033020Y050292
X-035560Y050292
X-038100Y050292
X-040640Y050292
X-043180Y050292
X-045720Y050292
X-048260Y050292
X-048260Y035052
X-045720Y035052
X-043180Y035052
X-040640Y035052
X-038100Y035052
X-035560Y035052
X-033020Y035052
X-030480Y035052
X-027940Y035052
X-025400Y035052
X-022860Y035052
X-020320Y035052
T04
X-042042Y054644G85X-042037Y054644
X-010162Y054644G85X-010157Y054644
X-042042Y030734G85X-042037Y030734
X-010162Y030734G85X-010157Y030734
M30
