G04 Layer: TopSilkscreenLayer*
G04 EasyEDA v6.5.1, 2022-03-30 11:40:58*
G04 f7f897cffc8b4bbe8ffd8634bc846e31,7b35ab87edb5478c89a92b32cd25319b,10*
G04 Gerber Generator version 0.2*
G04 Scale: 100 percent, Rotated: No, Reflected: No *
G04 Dimensions in millimeters *
G04 leading zeros omitted , absolute positions ,4 integer and 5 decimal *
%FSLAX45Y45*%
%MOMM*%

%ADD10C,0.2540*%
%ADD18C,0.2032*%
%ADD19C,0.1524*%

%LPD*%
G36*
X-3068320Y5813298D02*
G01*
X-3070148Y5807760D01*
X-3072638Y5801410D01*
X-3075635Y5794552D01*
X-3079038Y5787593D01*
X-3082747Y5780786D01*
X-3086557Y5774436D01*
X-3090316Y5768898D01*
X-3093974Y5764530D01*
X-3096971Y5763260D01*
X-3098800Y5762752D01*
X-3091942Y5745734D01*
X-3090875Y5746191D01*
X-3089046Y5747816D01*
X-3088132Y5749036D01*
X-3076295Y5752236D01*
X-3065780Y5755386D01*
X-3072688Y5745886D01*
X-3079851Y5736894D01*
X-3086963Y5728970D01*
X-3093720Y5722620D01*
X-3096818Y5721350D01*
X-3098800Y5720842D01*
X-3092704Y5703570D01*
X-3091586Y5704078D01*
X-3089402Y5705906D01*
X-3088386Y5707126D01*
X-3064459Y5713831D01*
X-3045460Y5719572D01*
X-3044190Y5711444D01*
X-3041599Y5709564D01*
X-3039059Y5709005D01*
X-3036824Y5709513D01*
X-3034944Y5711037D01*
X-3033674Y5713425D01*
X-3033064Y5716574D01*
X-3033268Y5720334D01*
X-3034538Y5724550D01*
X-3036925Y5729071D01*
X-3040634Y5733846D01*
X-3045815Y5738672D01*
X-3052572Y5743448D01*
X-3054604Y5742686D01*
X-3050336Y5733592D01*
X-3048254Y5728563D01*
X-3046476Y5723382D01*
X-3068015Y5721705D01*
X-3086100Y5720588D01*
X-3077616Y5727700D01*
X-3069132Y5735523D01*
X-3060903Y5743803D01*
X-3053232Y5752134D01*
X-3046374Y5760161D01*
X-3040634Y5767578D01*
X-3038449Y5767324D01*
X-3036620Y5767628D01*
X-3035147Y5768340D01*
X-3034284Y5769356D01*
X-3051302Y5780786D01*
X-3055823Y5771946D01*
X-3061716Y5761736D01*
X-3087878Y5761736D01*
X-3078988Y5770981D01*
X-3070250Y5781243D01*
X-3062325Y5791708D01*
X-3055874Y5801360D01*
X-3053638Y5801461D01*
X-3051860Y5802071D01*
X-3050489Y5803036D01*
X-3049524Y5804154D01*
G37*
G36*
X-3320287Y5813044D02*
G01*
X-3320287Y5794248D01*
X-3367024Y5794248D01*
X-3366008Y5788914D01*
X-3320287Y5788914D01*
X-3320287Y5774182D01*
X-3314039Y5774486D01*
X-3310534Y5775248D01*
X-3308045Y5776315D01*
X-3307079Y5777484D01*
X-3307079Y5788914D01*
X-3266440Y5788914D01*
X-3266440Y5774690D01*
X-3263138Y5774690D01*
X-3264865Y5768136D01*
X-3269030Y5755284D01*
X-3273806Y5743244D01*
X-3279038Y5732576D01*
X-3281679Y5727954D01*
X-3279140Y5726176D01*
X-3273704Y5731306D01*
X-3268421Y5737098D01*
X-3263442Y5743448D01*
X-3258820Y5750306D01*
X-3209544Y5750306D01*
X-3207918Y5750458D01*
X-3206597Y5750915D01*
X-3205581Y5751830D01*
X-3204972Y5753100D01*
X-3214319Y5761939D01*
X-3219704Y5766562D01*
X-3228086Y5755386D01*
X-3255772Y5755386D01*
X-3249168Y5768340D01*
X-3246628Y5768492D01*
X-3244697Y5769152D01*
X-3243376Y5770321D01*
X-3242564Y5771896D01*
X-3256026Y5775960D01*
X-3253943Y5777179D01*
X-3253232Y5778246D01*
X-3253232Y5788914D01*
X-3210052Y5788914D01*
X-3208426Y5789117D01*
X-3207105Y5789676D01*
X-3206089Y5790641D01*
X-3205480Y5791962D01*
X-3221482Y5805424D01*
X-3229864Y5794248D01*
X-3253232Y5794248D01*
X-3253232Y5806440D01*
X-3250387Y5807049D01*
X-3248558Y5808065D01*
X-3247440Y5809386D01*
X-3246882Y5811012D01*
X-3266440Y5813044D01*
X-3266440Y5794248D01*
X-3307079Y5794248D01*
X-3307079Y5806440D01*
X-3304286Y5807049D01*
X-3302406Y5808065D01*
X-3301339Y5809386D01*
X-3300984Y5811012D01*
G37*
G36*
X-3010662Y5813044D02*
G01*
X-3013202Y5804103D01*
X-3016656Y5793181D01*
X-3020568Y5781852D01*
X-3024378Y5771642D01*
X-3028492Y5769965D01*
X-3030674Y5768848D01*
X-3011678Y5768848D01*
X-3007715Y5779312D01*
X-3003804Y5790692D01*
X-2969006Y5790692D01*
X-2975864Y5768848D01*
X-3030674Y5768848D01*
X-3031998Y5768086D01*
X-3018282Y5757164D01*
X-3011932Y5763768D01*
X-2977388Y5763768D01*
X-2982468Y5747512D01*
X-3040126Y5747512D01*
X-3038602Y5742432D01*
X-2997962Y5742432D01*
X-2997962Y5706618D01*
X-3019958Y5694375D01*
X-3036824Y5685790D01*
X-3038195Y5690768D01*
X-3041345Y5696254D01*
X-3046577Y5702096D01*
X-3054096Y5707888D01*
X-3056382Y5707126D01*
X-3053283Y5700522D01*
X-3050641Y5692952D01*
X-3049016Y5685028D01*
X-3048762Y5677408D01*
X-3045256Y5675020D01*
X-3041853Y5674918D01*
X-3039008Y5676747D01*
X-3037078Y5680202D01*
X-3028442Y5670042D01*
X-3026714Y5672124D01*
X-3026105Y5673496D01*
X-3025902Y5675122D01*
X-3010306Y5689193D01*
X-2997962Y5700776D01*
X-2997962Y5668772D01*
X-2998114Y5667197D01*
X-2998724Y5666181D01*
X-2999892Y5665622D01*
X-3001772Y5665470D01*
X-3022092Y5666740D01*
X-3022092Y5663946D01*
X-3016808Y5663082D01*
X-3012744Y5662015D01*
X-3009747Y5660694D01*
X-3007614Y5659120D01*
X-3006293Y5657494D01*
X-3005277Y5655310D01*
X-3004667Y5652770D01*
X-3004312Y5649976D01*
X-2994101Y5652058D01*
X-2988259Y5655970D01*
X-2985617Y5661456D01*
X-2985008Y5668264D01*
X-2985008Y5737606D01*
X-2983331Y5728411D01*
X-2981452Y5720029D01*
X-2979267Y5712307D01*
X-2976829Y5705246D01*
X-2974086Y5698794D01*
X-2971088Y5692902D01*
X-2967786Y5687466D01*
X-2964180Y5682488D01*
X-2960268Y5677865D01*
X-2956052Y5673598D01*
X-2951530Y5669534D01*
X-2946654Y5665724D01*
X-2944926Y5670296D01*
X-2942539Y5673953D01*
X-2939440Y5676595D01*
X-2935732Y5678170D01*
X-2935224Y5679948D01*
X-2944418Y5684774D01*
X-2948889Y5687568D01*
X-2953258Y5690666D01*
X-2957474Y5694172D01*
X-2961487Y5698032D01*
X-2965348Y5702350D01*
X-2969006Y5707126D01*
X-2944622Y5725668D01*
X-2942285Y5725312D01*
X-2940558Y5725414D01*
X-2939389Y5725871D01*
X-2938780Y5726684D01*
X-2954020Y5737860D01*
X-2961843Y5724702D01*
X-2971038Y5710174D01*
X-2974695Y5717082D01*
X-2977997Y5724702D01*
X-2980842Y5733084D01*
X-2983230Y5742432D01*
X-2938780Y5742432D01*
X-2937154Y5742584D01*
X-2935833Y5743092D01*
X-2934817Y5743956D01*
X-2934208Y5745226D01*
X-2944012Y5754268D01*
X-2949448Y5758942D01*
X-2957830Y5747512D01*
X-2968244Y5747512D01*
X-2955290Y5788914D01*
X-2951581Y5789574D01*
X-2950260Y5790234D01*
X-2949194Y5791200D01*
X-2962402Y5802630D01*
X-2969260Y5795772D01*
X-3002280Y5795772D01*
X-2998978Y5805424D01*
X-2996031Y5805779D01*
X-2993898Y5806744D01*
X-2992526Y5808116D01*
X-2991866Y5809742D01*
G37*
G36*
X-3505454Y5810504D02*
G01*
X-3512312Y5802630D01*
X-3599942Y5802630D01*
X-3615182Y5809234D01*
X-3615182Y5797296D01*
X-3511042Y5797296D01*
X-3511042Y5749290D01*
X-3549650Y5749290D01*
X-3549650Y5797296D01*
X-3563620Y5797296D01*
X-3563620Y5749290D01*
X-3600958Y5749290D01*
X-3600958Y5797296D01*
X-3615182Y5797296D01*
X-3615182Y5734304D01*
X-3613150Y5734304D01*
X-3608781Y5734862D01*
X-3604869Y5736132D01*
X-3602024Y5737707D01*
X-3600958Y5739130D01*
X-3600958Y5744210D01*
X-3563620Y5744210D01*
X-3563620Y5724906D01*
X-3621532Y5724906D01*
X-3620008Y5719572D01*
X-3563620Y5719572D01*
X-3563620Y5700014D01*
X-3637534Y5700014D01*
X-3635756Y5694934D01*
X-3478784Y5694934D01*
X-3477158Y5695137D01*
X-3475837Y5695645D01*
X-3474821Y5696559D01*
X-3474212Y5697728D01*
X-3479596Y5702554D01*
X-3491484Y5712206D01*
X-3500882Y5700014D01*
X-3549650Y5700014D01*
X-3549650Y5719572D01*
X-3493008Y5719572D01*
X-3491280Y5719775D01*
X-3489960Y5720334D01*
X-3488994Y5721299D01*
X-3488436Y5722620D01*
X-3505200Y5736844D01*
X-3514344Y5724906D01*
X-3549650Y5724906D01*
X-3549650Y5744210D01*
X-3511042Y5744210D01*
X-3511042Y5737606D01*
X-3508756Y5737606D01*
X-3504844Y5738114D01*
X-3500932Y5739231D01*
X-3497884Y5740603D01*
X-3496564Y5741670D01*
X-3496564Y5795264D01*
X-3494379Y5795822D01*
X-3492500Y5796584D01*
X-3489960Y5798312D01*
G37*
G36*
X-3530854Y5789422D02*
G01*
X-3532733Y5782513D01*
X-3535476Y5774080D01*
X-3538626Y5765292D01*
X-3541776Y5757418D01*
X-3539744Y5756402D01*
X-3533851Y5762142D01*
X-3523081Y5774232D01*
X-3518915Y5779262D01*
X-3516528Y5779211D01*
X-3514750Y5779770D01*
X-3513582Y5780684D01*
X-3513074Y5781802D01*
G37*
G36*
X-3593084Y5788406D02*
G01*
X-3595115Y5787390D01*
X-3591712Y5781395D01*
X-3588664Y5774436D01*
X-3586429Y5767120D01*
X-3585464Y5759958D01*
X-3582822Y5758078D01*
X-3580282Y5757418D01*
X-3577894Y5757875D01*
X-3575913Y5759246D01*
X-3574491Y5761482D01*
X-3573729Y5764377D01*
X-3573881Y5767832D01*
X-3574999Y5771642D01*
X-3577336Y5775756D01*
X-3581044Y5780024D01*
X-3586226Y5784291D01*
G37*
G36*
X-3288284Y5779008D02*
G01*
X-3295650Y5769356D01*
X-3339084Y5769356D01*
X-3354324Y5776976D01*
X-3354324Y5764276D01*
X-3322065Y5764276D01*
X-3322065Y5750814D01*
X-3341370Y5750814D01*
X-3341370Y5764276D01*
X-3354324Y5764276D01*
X-3354324Y5745480D01*
X-3295650Y5745480D01*
X-3295650Y5731510D01*
X-3341370Y5731510D01*
X-3341370Y5745480D01*
X-3354324Y5745480D01*
X-3354324Y5726176D01*
X-3322065Y5726176D01*
X-3322065Y5712460D01*
X-3341370Y5712460D01*
X-3341370Y5726176D01*
X-3354324Y5726176D01*
X-3354324Y5713984D01*
X-3357270Y5711952D01*
X-3359658Y5709920D01*
X-3344672Y5701284D01*
X-3340100Y5707380D01*
X-3276092Y5707380D01*
X-3274618Y5707583D01*
X-3273348Y5708091D01*
X-3272383Y5709005D01*
X-3271774Y5710174D01*
X-3275888Y5714085D01*
X-3284982Y5721604D01*
X-3292094Y5712460D01*
X-3309874Y5712460D01*
X-3309874Y5726176D01*
X-3295650Y5726176D01*
X-3295650Y5722112D01*
X-3290620Y5722467D01*
X-3287369Y5723382D01*
X-3284829Y5724448D01*
X-3283712Y5725414D01*
X-3283712Y5744210D01*
X-3281730Y5744718D01*
X-3278733Y5746191D01*
X-3277870Y5747004D01*
X-3291078Y5757164D01*
X-3297174Y5750814D01*
X-3309874Y5750814D01*
X-3309874Y5764276D01*
X-3278632Y5764276D01*
X-3276904Y5764479D01*
X-3275634Y5764987D01*
X-3274720Y5765901D01*
X-3274314Y5767070D01*
X-3278632Y5771184D01*
G37*
G36*
X-3254248Y5743194D02*
G01*
X-3256279Y5742178D01*
X-3250336Y5736082D01*
X-3244850Y5728868D01*
X-3240481Y5721146D01*
X-3237992Y5713476D01*
X-3234690Y5711901D01*
X-3231692Y5711647D01*
X-3229152Y5712612D01*
X-3227273Y5714593D01*
X-3226104Y5717336D01*
X-3225901Y5720740D01*
X-3226866Y5724499D01*
X-3229102Y5728563D01*
X-3232759Y5732627D01*
X-3238093Y5736539D01*
X-3245205Y5740146D01*
G37*
G36*
X-3028442Y5736336D02*
G01*
X-3030474Y5735066D01*
X-3026105Y5729376D01*
X-3022092Y5722569D01*
X-3019044Y5715406D01*
X-3017520Y5708396D01*
X-3014624Y5706668D01*
X-3011830Y5706211D01*
X-3009392Y5706922D01*
X-3007410Y5708548D01*
X-3006090Y5710936D01*
X-3005531Y5713984D01*
X-3005988Y5717489D01*
X-3007563Y5721299D01*
X-3010408Y5725261D01*
X-3014726Y5729173D01*
X-3020669Y5732932D01*
G37*
G36*
X-3234436Y5704078D02*
G01*
X-3241294Y5697220D01*
X-3334765Y5697220D01*
X-3350514Y5703570D01*
X-3350514Y5692140D01*
X-3240024Y5692140D01*
X-3240024Y5661406D01*
X-3263138Y5661406D01*
X-3263138Y5692140D01*
X-3276600Y5692140D01*
X-3276600Y5661406D01*
X-3300476Y5661406D01*
X-3300476Y5692140D01*
X-3313937Y5692140D01*
X-3313937Y5661406D01*
X-3337051Y5661406D01*
X-3337051Y5692140D01*
X-3350514Y5692140D01*
X-3350514Y5661406D01*
X-3368801Y5661406D01*
X-3367278Y5656326D01*
X-3209544Y5656326D01*
X-3207816Y5656529D01*
X-3206394Y5657037D01*
X-3205429Y5657951D01*
X-3204972Y5659120D01*
X-3213404Y5667603D01*
X-3218180Y5672074D01*
X-3225546Y5661406D01*
X-3226054Y5661406D01*
X-3226054Y5690870D01*
X-3224123Y5691378D01*
X-3221278Y5692851D01*
X-3220466Y5693664D01*
G37*
G36*
X-3069844Y5702554D02*
G01*
X-3072130Y5701792D01*
X-3070809Y5694375D01*
X-3069996Y5685942D01*
X-3069894Y5677204D01*
X-3070860Y5668772D01*
X-3068421Y5666536D01*
X-3065932Y5665571D01*
X-3063494Y5665825D01*
X-3061258Y5667146D01*
X-3059480Y5669432D01*
X-3058160Y5672531D01*
X-3057550Y5676341D01*
X-3057753Y5680811D01*
X-3058922Y5685790D01*
X-3061258Y5691124D01*
X-3064814Y5696762D01*
G37*
G36*
X-3087624Y5698490D02*
G01*
X-3087827Y5690362D01*
X-3089656Y5682437D01*
X-3092602Y5675680D01*
X-3096260Y5670804D01*
X-3098393Y5668314D01*
X-3099765Y5665520D01*
X-3100171Y5662574D01*
X-3099308Y5659628D01*
X-3096514Y5657545D01*
X-3092907Y5657189D01*
X-3089249Y5658408D01*
X-3086354Y5660898D01*
X-3084677Y5663539D01*
X-3083255Y5666790D01*
X-3082188Y5670702D01*
X-3081578Y5675223D01*
X-3081426Y5680252D01*
X-3081832Y5685840D01*
X-3082848Y5691936D01*
X-3084576Y5698490D01*
G37*
G36*
X-3610864Y5689346D02*
G01*
X-3613251Y5680811D01*
X-3617976Y5673648D01*
X-3624021Y5668111D01*
X-3630422Y5664454D01*
X-3633317Y5662472D01*
X-3635400Y5659983D01*
X-3636365Y5657037D01*
X-3636010Y5653786D01*
X-3633622Y5650941D01*
X-3630015Y5649671D01*
X-3625748Y5649874D01*
X-3621532Y5651500D01*
X-3618382Y5653582D01*
X-3615232Y5656427D01*
X-3612387Y5660034D01*
X-3609898Y5664403D01*
X-3608070Y5669483D01*
X-3606952Y5675274D01*
X-3606800Y5681827D01*
X-3607815Y5689092D01*
G37*
G36*
X-3516122Y5688838D02*
G01*
X-3517646Y5687060D01*
X-3513277Y5683605D01*
X-3508806Y5679694D01*
X-3504437Y5675325D01*
X-3500272Y5670702D01*
X-3496462Y5665825D01*
X-3493109Y5660898D01*
X-3490366Y5656021D01*
X-3488436Y5651246D01*
X-3485489Y5649976D01*
X-3482848Y5649620D01*
X-3480511Y5650128D01*
X-3478580Y5651347D01*
X-3477158Y5653176D01*
X-3476345Y5655614D01*
X-3476142Y5658459D01*
X-3476650Y5661660D01*
X-3477971Y5665114D01*
X-3480206Y5668772D01*
X-3483356Y5672480D01*
X-3487521Y5676188D01*
X-3492855Y5679744D01*
X-3499307Y5683097D01*
X-3507028Y5686196D01*
G37*
G36*
X-3584194Y5688076D02*
G01*
X-3586479Y5687314D01*
X-3583889Y5679846D01*
X-3581755Y5671515D01*
X-3580282Y5662980D01*
X-3579876Y5654802D01*
X-3576929Y5652516D01*
X-3573983Y5651601D01*
X-3571240Y5651906D01*
X-3568903Y5653379D01*
X-3567125Y5655818D01*
X-3566058Y5659069D01*
X-3565855Y5662980D01*
X-3566718Y5667502D01*
X-3568801Y5672378D01*
X-3572306Y5677509D01*
X-3577386Y5682792D01*
G37*
G36*
X-3550920Y5688076D02*
G01*
X-3552951Y5687060D01*
X-3548024Y5679694D01*
X-3543198Y5671362D01*
X-3539185Y5662676D01*
X-3536696Y5654294D01*
X-3534156Y5652719D01*
X-3531717Y5651957D01*
X-3529482Y5652008D01*
X-3527501Y5652770D01*
X-3525824Y5654141D01*
X-3524605Y5656021D01*
X-3523843Y5658408D01*
X-3523589Y5661202D01*
X-3524046Y5664250D01*
X-3525164Y5667603D01*
X-3527094Y5671058D01*
X-3529837Y5674614D01*
X-3533546Y5678170D01*
X-3538220Y5681675D01*
X-3544011Y5684977D01*
G37*
D18*
X-3835400Y3108960D02*
G01*
X-3835400Y2979165D01*
X-3748786Y3108960D02*
G01*
X-3748786Y2979165D01*
X-3835400Y3047237D02*
G01*
X-3748786Y3047237D01*
X-3708145Y3108960D02*
G01*
X-3708145Y3016250D01*
X-3701795Y2997707D01*
X-3689604Y2985515D01*
X-3671062Y2979165D01*
X-3658615Y2979165D01*
X-3640073Y2985515D01*
X-3627628Y2997707D01*
X-3621531Y3016250D01*
X-3621531Y3108960D01*
X-3494278Y3090418D02*
G01*
X-3506470Y3102863D01*
X-3525012Y3108960D01*
X-3549904Y3108960D01*
X-3568445Y3102863D01*
X-3580637Y3090418D01*
X-3580637Y3078226D01*
X-3574542Y3065779D01*
X-3568445Y3059684D01*
X-3556000Y3053334D01*
X-3518915Y3041142D01*
X-3506470Y3034792D01*
X-3500373Y3028695D01*
X-3494278Y3016250D01*
X-3494278Y2997707D01*
X-3506470Y2985515D01*
X-3525012Y2979165D01*
X-3549904Y2979165D01*
X-3568445Y2985515D01*
X-3580637Y2997707D01*
X-3453384Y3108960D02*
G01*
X-3453384Y2979165D01*
X-3366770Y3108960D02*
G01*
X-3453384Y3022600D01*
X-3422395Y3053334D02*
G01*
X-3366770Y2979165D01*
X-3326129Y3108960D02*
G01*
X-3276600Y3047237D01*
X-3276600Y2979165D01*
X-3227070Y3108960D02*
G01*
X-3276600Y3047237D01*
X-3186429Y3108960D02*
G01*
X-3186429Y2979165D01*
X-3186429Y2979165D02*
G01*
X-3112007Y2979165D01*
X-3071368Y3108960D02*
G01*
X-3071368Y2979165D01*
X-3071368Y3108960D02*
G01*
X-2990850Y3108960D01*
X-3071368Y3047237D02*
G01*
X-3021837Y3047237D01*
X-3071368Y2979165D02*
G01*
X-2990850Y2979165D01*
X-2950210Y3108960D02*
G01*
X-2950210Y2979165D01*
X-2950210Y3108960D02*
G01*
X-2863595Y2979165D01*
X-2863595Y3108960D02*
G01*
X-2863595Y2979165D01*
X-2736342Y3090418D02*
G01*
X-2748534Y3102863D01*
X-2767076Y3108960D01*
X-2791968Y3108960D01*
X-2810510Y3102863D01*
X-2822702Y3090418D01*
X-2822702Y3078226D01*
X-2816605Y3065779D01*
X-2810510Y3059684D01*
X-2798063Y3053334D01*
X-2760979Y3041142D01*
X-2748534Y3034792D01*
X-2742437Y3028695D01*
X-2736342Y3016250D01*
X-2736342Y2997707D01*
X-2748534Y2985515D01*
X-2767076Y2979165D01*
X-2791968Y2979165D01*
X-2810510Y2985515D01*
X-2822702Y2997707D01*
X-2600197Y3108960D02*
G01*
X-2600197Y2979165D01*
X-2600197Y3108960D02*
G01*
X-2519934Y3108960D01*
X-2600197Y3047237D02*
G01*
X-2550921Y3047237D01*
X-2600197Y2979165D02*
G01*
X-2519934Y2979165D01*
X-2479039Y3108960D02*
G01*
X-2429763Y2979165D01*
X-2380234Y3108960D02*
G01*
X-2429763Y2979165D01*
X-2327147Y3108960D02*
G01*
X-2259076Y3108960D01*
X-2296160Y3059684D01*
X-2277618Y3059684D01*
X-2265171Y3053334D01*
X-2259076Y3047237D01*
X-2252979Y3028695D01*
X-2252979Y3016250D01*
X-2259076Y2997707D01*
X-2271521Y2985515D01*
X-2290063Y2979165D01*
X-2308605Y2979165D01*
X-2327147Y2985515D01*
X-2333244Y2991612D01*
X-2339339Y3004057D01*
X-2067305Y3108960D02*
G01*
X-2116836Y2979165D01*
X-2067305Y3108960D02*
G01*
X-2018029Y2979165D01*
X-2098294Y3022600D02*
G01*
X-2036571Y3022600D01*
X-1902968Y3108960D02*
G01*
X-1902968Y2979165D01*
X-1902968Y3047237D02*
G01*
X-1915413Y3059684D01*
X-1927605Y3065779D01*
X-1946147Y3065779D01*
X-1958594Y3059684D01*
X-1971039Y3047237D01*
X-1977136Y3028695D01*
X-1977136Y3016250D01*
X-1971039Y2997707D01*
X-1958594Y2985515D01*
X-1946147Y2979165D01*
X-1927605Y2979165D01*
X-1915413Y2985515D01*
X-1902968Y2997707D01*
X-1787905Y3065779D02*
G01*
X-1787905Y2979165D01*
X-1787905Y3047237D02*
G01*
X-1800352Y3059684D01*
X-1812797Y3065779D01*
X-1831339Y3065779D01*
X-1843531Y3059684D01*
X-1855978Y3047237D01*
X-1862073Y3028695D01*
X-1862073Y3016250D01*
X-1855978Y2997707D01*
X-1843531Y2985515D01*
X-1831339Y2979165D01*
X-1812797Y2979165D01*
X-1800352Y2985515D01*
X-1787905Y2997707D01*
X-1747265Y3065779D02*
G01*
X-1747265Y2935986D01*
X-1747265Y3047237D02*
G01*
X-1734820Y3059684D01*
X-1722373Y3065779D01*
X-1703831Y3065779D01*
X-1691639Y3059684D01*
X-1679194Y3047237D01*
X-1673097Y3028695D01*
X-1673097Y3016250D01*
X-1679194Y2997707D01*
X-1691639Y2985515D01*
X-1703831Y2979165D01*
X-1722373Y2979165D01*
X-1734820Y2985515D01*
X-1747265Y2997707D01*
X-1613662Y3108960D02*
G01*
X-1613662Y3004057D01*
X-1607565Y2985515D01*
X-1595120Y2979165D01*
X-1582673Y2979165D01*
X-1632204Y3065779D02*
G01*
X-1589023Y3065779D01*
X-1542034Y3028695D02*
G01*
X-1467865Y3028695D01*
X-1467865Y3041142D01*
X-1473962Y3053334D01*
X-1480057Y3059684D01*
X-1492504Y3065779D01*
X-1511045Y3065779D01*
X-1523492Y3059684D01*
X-1535684Y3047237D01*
X-1542034Y3028695D01*
X-1542034Y3016250D01*
X-1535684Y2997707D01*
X-1523492Y2985515D01*
X-1511045Y2979165D01*
X-1492504Y2979165D01*
X-1480057Y2985515D01*
X-1467865Y2997707D01*
X-1426971Y3065779D02*
G01*
X-1426971Y2979165D01*
X-1426971Y3028695D02*
G01*
X-1420876Y3047237D01*
X-1408429Y3059684D01*
X-1395984Y3065779D01*
X-1377442Y3065779D01*
X-4062221Y4276597D02*
G01*
X-4102100Y4171695D01*
X-4062221Y4276597D02*
G01*
X-4022089Y4171695D01*
X-4087113Y4206494D02*
G01*
X-4037076Y4206494D01*
X-3989070Y4241545D02*
G01*
X-3989070Y4171695D01*
X-3989070Y4211573D02*
G01*
X-3983989Y4226560D01*
X-3974084Y4236720D01*
X-3964178Y4241545D01*
X-3949192Y4241545D01*
X-3855973Y4276597D02*
G01*
X-3855973Y4171695D01*
X-3855973Y4226560D02*
G01*
X-3866134Y4236720D01*
X-3876039Y4241545D01*
X-3891026Y4241545D01*
X-3901186Y4236720D01*
X-3911092Y4226560D01*
X-3916171Y4211573D01*
X-3916171Y4201668D01*
X-3911092Y4186681D01*
X-3901186Y4176521D01*
X-3891026Y4171695D01*
X-3876039Y4171695D01*
X-3866134Y4176521D01*
X-3855973Y4186681D01*
X-3823207Y4241545D02*
G01*
X-3823207Y4191507D01*
X-3818128Y4176521D01*
X-3808221Y4171695D01*
X-3792981Y4171695D01*
X-3783076Y4176521D01*
X-3768089Y4191507D01*
X-3768089Y4241545D02*
G01*
X-3768089Y4171695D01*
X-3735070Y4276597D02*
G01*
X-3729989Y4271518D01*
X-3725163Y4276597D01*
X-3729989Y4281678D01*
X-3735070Y4276597D01*
X-3729989Y4241545D02*
G01*
X-3729989Y4171695D01*
X-3692144Y4241545D02*
G01*
X-3692144Y4171695D01*
X-3692144Y4221479D02*
G01*
X-3677157Y4236720D01*
X-3666997Y4241545D01*
X-3652012Y4241545D01*
X-3642105Y4236720D01*
X-3637026Y4221479D01*
X-3637026Y4171695D01*
X-3579113Y4241545D02*
G01*
X-3589020Y4236720D01*
X-3599179Y4226560D01*
X-3604005Y4211573D01*
X-3604005Y4201668D01*
X-3599179Y4186681D01*
X-3589020Y4176521D01*
X-3579113Y4171695D01*
X-3564128Y4171695D01*
X-3554221Y4176521D01*
X-3544062Y4186681D01*
X-3538981Y4201668D01*
X-3538981Y4211573D01*
X-3544062Y4226560D01*
X-3554221Y4236720D01*
X-3564128Y4241545D01*
X-3579113Y4241545D01*
X-3429000Y4276597D02*
G01*
X-3429000Y4171695D01*
X-3429000Y4276597D02*
G01*
X-3384042Y4276597D01*
X-3369055Y4271518D01*
X-3363976Y4266692D01*
X-3359150Y4256531D01*
X-3359150Y4241545D01*
X-3363976Y4231639D01*
X-3369055Y4226560D01*
X-3384042Y4221479D01*
X-3429000Y4221479D01*
X-3326129Y4241545D02*
G01*
X-3326129Y4171695D01*
X-3326129Y4211573D02*
G01*
X-3321050Y4226560D01*
X-3311144Y4236720D01*
X-3300984Y4241545D01*
X-3285997Y4241545D01*
X-3228086Y4241545D02*
G01*
X-3237992Y4236720D01*
X-3248152Y4226560D01*
X-3252978Y4211573D01*
X-3252978Y4201668D01*
X-3248152Y4186681D01*
X-3237992Y4176521D01*
X-3228086Y4171695D01*
X-3213100Y4171695D01*
X-3203194Y4176521D01*
X-3193034Y4186681D01*
X-3188207Y4201668D01*
X-3188207Y4211573D01*
X-3193034Y4226560D01*
X-3203194Y4236720D01*
X-3213100Y4241545D01*
X-3228086Y4241545D01*
X-3078226Y4276597D02*
G01*
X-3078226Y4171695D01*
X-3078226Y4276597D02*
G01*
X-3038094Y4171695D01*
X-2998215Y4276597D02*
G01*
X-3038094Y4171695D01*
X-2998215Y4276597D02*
G01*
X-2998215Y4171695D01*
X-2965195Y4276597D02*
G01*
X-2960115Y4271518D01*
X-2955036Y4276597D01*
X-2960115Y4281678D01*
X-2965195Y4276597D01*
X-2960115Y4241545D02*
G01*
X-2960115Y4171695D01*
X-2922015Y4241545D02*
G01*
X-2922015Y4171695D01*
X-2922015Y4221479D02*
G01*
X-2907029Y4236720D01*
X-2897123Y4241545D01*
X-2882137Y4241545D01*
X-2871978Y4236720D01*
X-2867152Y4221479D01*
X-2867152Y4171695D01*
X-2834131Y4276597D02*
G01*
X-2829052Y4271518D01*
X-2824226Y4276597D01*
X-2829052Y4281678D01*
X-2834131Y4276597D01*
X-2829052Y4241545D02*
G01*
X-2829052Y4171695D01*
X-2654045Y4276597D02*
G01*
X-2704084Y4276597D01*
X-2709163Y4231639D01*
X-2704084Y4236720D01*
X-2689097Y4241545D01*
X-2674112Y4241545D01*
X-2659126Y4236720D01*
X-2649220Y4226560D01*
X-2644139Y4211573D01*
X-2644139Y4201668D01*
X-2649220Y4186681D01*
X-2659126Y4176521D01*
X-2674112Y4171695D01*
X-2689097Y4171695D01*
X-2704084Y4176521D01*
X-2709163Y4181602D01*
X-2713989Y4191507D01*
X-2611120Y4276597D02*
G01*
X-2570987Y4171695D01*
X-2531110Y4276597D02*
G01*
X-2570987Y4171695D01*
D19*
X-2768600Y5424931D02*
G01*
X-2768600Y5363463D01*
X-2764536Y5351271D01*
X-2756407Y5342889D01*
X-2743962Y5338826D01*
X-2735834Y5338826D01*
X-2723642Y5342889D01*
X-2715513Y5351271D01*
X-2711450Y5363463D01*
X-2711450Y5424931D01*
X-2651505Y5424931D02*
G01*
X-2684271Y5338826D01*
X-2651505Y5424931D02*
G01*
X-2618994Y5338826D01*
X-2672079Y5367528D02*
G01*
X-2631186Y5367528D01*
X-2591815Y5424931D02*
G01*
X-2591815Y5338826D01*
X-2591815Y5424931D02*
G01*
X-2554986Y5424931D01*
X-2542794Y5420613D01*
X-2538729Y5416550D01*
X-2534665Y5408421D01*
X-2534665Y5400294D01*
X-2538729Y5392165D01*
X-2542794Y5388102D01*
X-2554986Y5383784D01*
X-2591815Y5383784D01*
X-2563113Y5383784D02*
G01*
X-2534665Y5338826D01*
X-2479039Y5424931D02*
G01*
X-2479039Y5338826D01*
X-2507487Y5424931D02*
G01*
X-2450337Y5424931D01*
X-2307081Y5396229D02*
G01*
X-2311145Y5383784D01*
X-2319528Y5375655D01*
X-2331720Y5371592D01*
X-2335784Y5371592D01*
X-2347976Y5375655D01*
X-2356357Y5383784D01*
X-2360421Y5396229D01*
X-2360421Y5400294D01*
X-2356357Y5412486D01*
X-2347976Y5420613D01*
X-2335784Y5424931D01*
X-2331720Y5424931D01*
X-2319528Y5420613D01*
X-2311145Y5412486D01*
X-2307081Y5396229D01*
X-2307081Y5375655D01*
X-2311145Y5355336D01*
X-2319528Y5342889D01*
X-2331720Y5338826D01*
X-2339847Y5338826D01*
X-2352039Y5342889D01*
X-2356357Y5351271D01*
X-2231136Y5412486D02*
G01*
X-2235200Y5420613D01*
X-2247392Y5424931D01*
X-2255520Y5424931D01*
X-2267965Y5420613D01*
X-2276094Y5408421D01*
X-2280157Y5388102D01*
X-2280157Y5367528D01*
X-2276094Y5351271D01*
X-2267965Y5342889D01*
X-2255520Y5338826D01*
X-2251455Y5338826D01*
X-2239263Y5342889D01*
X-2231136Y5351271D01*
X-2227071Y5363463D01*
X-2227071Y5367528D01*
X-2231136Y5379720D01*
X-2239263Y5388102D01*
X-2251455Y5392165D01*
X-2255520Y5392165D01*
X-2267965Y5388102D01*
X-2276094Y5379720D01*
X-2280157Y5367528D01*
X-2175510Y5424931D02*
G01*
X-2187702Y5420613D01*
X-2195829Y5408421D01*
X-2199894Y5388102D01*
X-2199894Y5375655D01*
X-2195829Y5355336D01*
X-2187702Y5342889D01*
X-2175510Y5338826D01*
X-2167128Y5338826D01*
X-2154936Y5342889D01*
X-2146807Y5355336D01*
X-2142744Y5375655D01*
X-2142744Y5388102D01*
X-2146807Y5408421D01*
X-2154936Y5420613D01*
X-2167128Y5424931D01*
X-2175510Y5424931D01*
X-2091181Y5424931D02*
G01*
X-2103373Y5420613D01*
X-2111502Y5408421D01*
X-2115565Y5388102D01*
X-2115565Y5375655D01*
X-2111502Y5355336D01*
X-2103373Y5342889D01*
X-2091181Y5338826D01*
X-2083054Y5338826D01*
X-2070607Y5342889D01*
X-2062479Y5355336D01*
X-2058415Y5375655D01*
X-2058415Y5388102D01*
X-2062479Y5408421D01*
X-2070607Y5420613D01*
X-2083054Y5424931D01*
X-2091181Y5424931D01*
X-2311400Y2859531D02*
G01*
X-2311400Y2773426D01*
X-2311400Y2859531D02*
G01*
X-2274570Y2859531D01*
X-2262378Y2855213D01*
X-2258313Y2851150D01*
X-2254250Y2843021D01*
X-2254250Y2834894D01*
X-2258313Y2826765D01*
X-2262378Y2822702D01*
X-2274570Y2818384D01*
X-2311400Y2818384D01*
X-2282697Y2818384D02*
G01*
X-2254250Y2773426D01*
X-2227071Y2806192D02*
G01*
X-2178050Y2806192D01*
X-2178050Y2814320D01*
X-2182113Y2822702D01*
X-2186178Y2826765D01*
X-2194305Y2830829D01*
X-2206752Y2830829D01*
X-2214879Y2826765D01*
X-2223007Y2818384D01*
X-2227071Y2806192D01*
X-2227071Y2798063D01*
X-2223007Y2785871D01*
X-2214879Y2777489D01*
X-2206752Y2773426D01*
X-2194305Y2773426D01*
X-2186178Y2777489D01*
X-2178050Y2785871D01*
X-2151126Y2830829D02*
G01*
X-2126487Y2773426D01*
X-2101850Y2830829D02*
G01*
X-2126487Y2773426D01*
X-2011934Y2843021D02*
G01*
X-2003805Y2847086D01*
X-1991613Y2859531D01*
X-1991613Y2773426D01*
X-1960371Y2794000D02*
G01*
X-1964436Y2789936D01*
X-1960371Y2785871D01*
X-1956307Y2789936D01*
X-1960371Y2794000D01*
X-1904745Y2859531D02*
G01*
X-1916937Y2855213D01*
X-1925320Y2843021D01*
X-1929384Y2822702D01*
X-1929384Y2810255D01*
X-1925320Y2789936D01*
X-1916937Y2777489D01*
X-1904745Y2773426D01*
X-1896618Y2773426D01*
X-1884426Y2777489D01*
X-1876044Y2789936D01*
X-1871979Y2810255D01*
X-1871979Y2822702D01*
X-1876044Y2843021D01*
X-1884426Y2855213D01*
X-1896618Y2859531D01*
X-1904745Y2859531D01*
X-1761489Y2830829D02*
G01*
X-1769871Y2826765D01*
X-1778000Y2818384D01*
X-1782063Y2806192D01*
X-1782063Y2798063D01*
X-1778000Y2785871D01*
X-1769871Y2777489D01*
X-1761489Y2773426D01*
X-1749297Y2773426D01*
X-1741170Y2777489D01*
X-1733042Y2785871D01*
X-1728978Y2798063D01*
X-1728978Y2806192D01*
X-1733042Y2818384D01*
X-1741170Y2826765D01*
X-1749297Y2830829D01*
X-1761489Y2830829D01*
X-1669034Y2859531D02*
G01*
X-1677415Y2859531D01*
X-1685544Y2855213D01*
X-1689607Y2843021D01*
X-1689607Y2773426D01*
X-1701800Y2830829D02*
G01*
X-1673097Y2830829D01*
X-1593087Y2859531D02*
G01*
X-1593087Y2773426D01*
X-1593087Y2818384D02*
G01*
X-1601215Y2826765D01*
X-1609344Y2830829D01*
X-1621789Y2830829D01*
X-1629918Y2826765D01*
X-1638045Y2818384D01*
X-1642110Y2806192D01*
X-1642110Y2798063D01*
X-1638045Y2785871D01*
X-1629918Y2777489D01*
X-1621789Y2773426D01*
X-1609344Y2773426D01*
X-1601215Y2777489D01*
X-1593087Y2785871D01*
X-1566163Y2859531D02*
G01*
X-1566163Y2773426D01*
X-1534921Y2794000D02*
G01*
X-1538986Y2789936D01*
X-1534921Y2785871D01*
X-1530857Y2789936D01*
X-1534921Y2794000D01*
X-1491487Y2859531D02*
G01*
X-1491487Y2789936D01*
X-1487423Y2777489D01*
X-1479295Y2773426D01*
X-1471168Y2773426D01*
X-1503934Y2830829D02*
G01*
X-1475231Y2830829D01*
X-1444244Y2830829D02*
G01*
X-1427734Y2773426D01*
X-1411478Y2830829D02*
G01*
X-1427734Y2773426D01*
X-1411478Y2830829D02*
G01*
X-1394968Y2773426D01*
X-1378712Y2830829D02*
G01*
X-1394968Y2773426D01*
X-2768600Y5577331D02*
G01*
X-2768600Y5491226D01*
X-2711450Y5577331D02*
G01*
X-2711450Y5491226D01*
X-2768600Y5536184D02*
G01*
X-2711450Y5536184D01*
X-2684271Y5577331D02*
G01*
X-2684271Y5515863D01*
X-2680207Y5503671D01*
X-2672079Y5495289D01*
X-2659887Y5491226D01*
X-2651505Y5491226D01*
X-2639313Y5495289D01*
X-2631186Y5503671D01*
X-2627121Y5515863D01*
X-2627121Y5577331D01*
X-2542794Y5564886D02*
G01*
X-2550921Y5573013D01*
X-2563113Y5577331D01*
X-2579623Y5577331D01*
X-2591815Y5573013D01*
X-2599944Y5564886D01*
X-2599944Y5556757D01*
X-2595879Y5548629D01*
X-2591815Y5544565D01*
X-2583687Y5540502D01*
X-2559050Y5532120D01*
X-2550921Y5528055D01*
X-2546857Y5523992D01*
X-2542794Y5515863D01*
X-2542794Y5503671D01*
X-2550921Y5495289D01*
X-2563113Y5491226D01*
X-2579623Y5491226D01*
X-2591815Y5495289D01*
X-2599944Y5503671D01*
X-2515870Y5577331D02*
G01*
X-2515870Y5491226D01*
X-2458465Y5577331D02*
G01*
X-2515870Y5519928D01*
X-2495295Y5540502D02*
G01*
X-2458465Y5491226D01*
X-2431542Y5577331D02*
G01*
X-2398776Y5536184D01*
X-2398776Y5491226D01*
X-2366010Y5577331D02*
G01*
X-2398776Y5536184D01*
X-2339086Y5577331D02*
G01*
X-2339086Y5491226D01*
X-2339086Y5491226D02*
G01*
X-2290063Y5491226D01*
X-2262886Y5577331D02*
G01*
X-2262886Y5491226D01*
X-2262886Y5577331D02*
G01*
X-2209800Y5577331D01*
X-2262886Y5536184D02*
G01*
X-2230120Y5536184D01*
X-2262886Y5491226D02*
G01*
X-2209800Y5491226D01*
X-2182876Y5577331D02*
G01*
X-2182876Y5491226D01*
X-2182876Y5577331D02*
G01*
X-2125471Y5491226D01*
X-2125471Y5577331D02*
G01*
X-2125471Y5491226D01*
X-2041144Y5564886D02*
G01*
X-2049526Y5573013D01*
X-2061718Y5577331D01*
X-2077973Y5577331D01*
X-2090420Y5573013D01*
X-2098547Y5564886D01*
X-2098547Y5556757D01*
X-2094484Y5548629D01*
X-2090420Y5544565D01*
X-2082037Y5540502D01*
X-2057654Y5532120D01*
X-2049526Y5528055D01*
X-2045207Y5523992D01*
X-2041144Y5515863D01*
X-2041144Y5503671D01*
X-2049526Y5495289D01*
X-2061718Y5491226D01*
X-2077973Y5491226D01*
X-2090420Y5495289D01*
X-2098547Y5503671D01*
X-1493723Y4216996D02*
G01*
X-1384757Y4216996D01*
X-1493723Y4216996D02*
G01*
X-1493723Y4263732D01*
X-1488643Y4279226D01*
X-1483309Y4284560D01*
X-1472895Y4289640D01*
X-1462481Y4289640D01*
X-1452067Y4284560D01*
X-1446987Y4279226D01*
X-1441907Y4263732D01*
X-1441907Y4216996D01*
X-1441907Y4253318D02*
G01*
X-1384757Y4289640D01*
X-1493723Y4376000D02*
G01*
X-1410665Y4376000D01*
X-1394917Y4370666D01*
X-1389837Y4365586D01*
X-1384757Y4355172D01*
X-1384757Y4344758D01*
X-1389837Y4334344D01*
X-1394917Y4329264D01*
X-1410665Y4323930D01*
X-1421079Y4323930D01*
X-1472895Y4410290D02*
G01*
X-1478229Y4420704D01*
X-1493723Y4436198D01*
X-1384757Y4436198D01*
X-1497584Y4140200D02*
G01*
X-1575562Y4140200D01*
X-1591055Y4135120D01*
X-1601470Y4124705D01*
X-1606550Y4108957D01*
X-1606550Y4098544D01*
X-1601470Y4083050D01*
X-1591055Y4072636D01*
X-1575562Y4067555D01*
X-1497584Y4067555D01*
X-1518412Y4033265D02*
G01*
X-1513078Y4022852D01*
X-1497584Y4007104D01*
X-1606550Y4007104D01*
D10*
X-2921000Y5321300D02*
G01*
X-3683000Y5321300D01*
X-3683000Y5575300D01*
X-2921000Y5575300D01*
X-2921000Y5321300D01*
X-493608Y4851801D02*
G01*
X-33606Y4851798D01*
X-33606Y3631801D02*
G01*
X-493608Y3631798D01*
X-1333606Y3631798D02*
G01*
X-1333606Y4851798D01*
X-33604Y3631798D02*
G01*
X-33606Y4851798D01*
X-773607Y3631798D02*
G01*
X-1333611Y3631796D01*
X-1333609Y4851801D02*
G01*
X-773607Y4851801D01*
M02*
