G04 Layer: BottomSilkscreenLayer*
G04 EasyEDA v6.5.1, 2022-03-30 11:40:58*
G04 f7f897cffc8b4bbe8ffd8634bc846e31,7b35ab87edb5478c89a92b32cd25319b,10*
G04 Gerber Generator version 0.2*
G04 Scale: 100 percent, Rotated: No, Reflected: No *
G04 Dimensions in millimeters *
G04 leading zeros omitted , absolute positions ,4 integer and 5 decimal *
%FSLAX45Y45*%
%MOMM*%

%ADD10C,0.0001*%

%LPD*%
G36*
X-2978912Y4011929D02*
G01*
X-2988818Y4010507D01*
X-2996438Y4008069D01*
X-3001924Y4004919D01*
X-3005531Y4001414D01*
X-3007410Y3997706D01*
X-3007868Y3994150D01*
X-3007004Y3991000D01*
X-3005074Y3988562D01*
X-3049524Y3988562D01*
X-3059684Y4001008D01*
X-3072231Y3991254D01*
X-3077972Y3986276D01*
X-3077413Y3985006D01*
X-3076448Y3984142D01*
X-3075127Y3983634D01*
X-3073400Y3983482D01*
X-2918968Y3983482D01*
X-2917444Y3988562D01*
X-2995422Y3988562D01*
X-2992628Y3994505D01*
X-2988208Y4000550D01*
X-2982874Y4006037D01*
X-2977388Y4010406D01*
G37*
G36*
X-2812796Y4010406D02*
G01*
X-2832354Y4007104D01*
X-2831592Y4005376D01*
X-2830322Y4004106D01*
X-2828493Y4003192D01*
X-2826004Y4002786D01*
X-2821330Y3996385D01*
X-2816098Y3989832D01*
X-2829814Y3989832D01*
X-2836418Y3997198D01*
X-2850896Y3986022D01*
X-2849171Y3984751D01*
X-2806700Y3984751D01*
X-2806700Y3962654D01*
X-2831592Y3962654D01*
X-2831592Y3984751D01*
X-2849171Y3984751D01*
X-2846222Y3983380D01*
X-2844038Y3982720D01*
X-2844038Y3957574D01*
X-2806700Y3957574D01*
X-2806700Y3935222D01*
X-2831592Y3935222D01*
X-2831592Y3957574D01*
X-2844038Y3957574D01*
X-2844038Y3926332D01*
X-2842818Y3925163D01*
X-2840126Y3923842D01*
X-2836722Y3922725D01*
X-2833370Y3922268D01*
X-2831592Y3922268D01*
X-2831592Y3929887D01*
X-2806700Y3929887D01*
X-2806700Y3924300D01*
X-2805785Y3923233D01*
X-2803448Y3921912D01*
X-2800146Y3920744D01*
X-2796540Y3920236D01*
X-2794762Y3920236D01*
X-2794762Y3974592D01*
X-2792272Y3973626D01*
X-2790596Y3973525D01*
X-2788666Y3973829D01*
X-2785313Y3968343D01*
X-2776880Y3956456D01*
X-2766923Y3944162D01*
X-2756204Y3932580D01*
X-2750820Y3927348D01*
X-2779776Y3929887D01*
X-2777032Y3939336D01*
X-2775407Y3943756D01*
X-2773680Y3947668D01*
X-2775712Y3948429D01*
X-2782011Y3943807D01*
X-2786735Y3939133D01*
X-2790037Y3934510D01*
X-2792018Y3930192D01*
X-2792933Y3926179D01*
X-2792831Y3922623D01*
X-2791917Y3919677D01*
X-2790393Y3917492D01*
X-2788310Y3916172D01*
X-2785922Y3915867D01*
X-2783382Y3916629D01*
X-2780792Y3918712D01*
X-2780538Y3925570D01*
X-2766263Y3921201D01*
X-2750058Y3916679D01*
X-2749245Y3915460D01*
X-2747365Y3913835D01*
X-2746248Y3913378D01*
X-2738628Y3927856D01*
X-2744419Y3929024D01*
X-2746248Y3929887D01*
X-2751124Y3935882D01*
X-2756357Y3943197D01*
X-2761691Y3951528D01*
X-2766822Y3960368D01*
X-2750566Y3954526D01*
X-2749702Y3952951D01*
X-2748686Y3951681D01*
X-2747518Y3950665D01*
X-2746248Y3949954D01*
X-2738374Y3965448D01*
X-2744063Y3966819D01*
X-2745740Y3967734D01*
X-2748381Y3971493D01*
X-2751124Y3976217D01*
X-2753918Y3981653D01*
X-2759049Y3993642D01*
X-2761284Y3999534D01*
X-2764536Y4009898D01*
X-2783586Y4001262D01*
X-2782874Y4000195D01*
X-2781503Y3999331D01*
X-2779572Y3998772D01*
X-2776982Y3998722D01*
X-2771495Y3990543D01*
X-2764891Y3981653D01*
X-2757678Y3972966D01*
X-2750312Y3965194D01*
X-2769870Y3966210D01*
X-2775102Y3976979D01*
X-2779014Y3986022D01*
X-2794762Y3976115D01*
X-2794762Y3995674D01*
X-2807462Y3989832D01*
X-2810510Y3989832D01*
G37*
G36*
X-3224022Y4010151D02*
G01*
X-3239770Y3994912D01*
X-3238246Y3994048D01*
X-3236061Y3993794D01*
X-3233216Y3994150D01*
X-3229864Y3995165D01*
X-3208172Y3991051D01*
X-3196183Y3989070D01*
X-3183636Y3987292D01*
X-3183636Y3953764D01*
X-3221482Y3953764D01*
X-3231134Y3965956D01*
X-3243478Y3956202D01*
X-3249168Y3951224D01*
X-3248660Y3950055D01*
X-3247593Y3949141D01*
X-3246120Y3948633D01*
X-3244342Y3948429D01*
X-3183636Y3948429D01*
X-3183636Y3914140D01*
X-3230372Y3914140D01*
X-3240532Y3926586D01*
X-3247136Y3921506D01*
X-3259074Y3911854D01*
X-3258413Y3910584D01*
X-3257296Y3909720D01*
X-3255772Y3909212D01*
X-3253994Y3909060D01*
X-3183636Y3909060D01*
X-3183636Y3867658D01*
X-3183432Y3863594D01*
X-3182772Y3859885D01*
X-3181451Y3856532D01*
X-3179267Y3853586D01*
X-3176066Y3851097D01*
X-3171647Y3849065D01*
X-3165856Y3847541D01*
X-3158490Y3846576D01*
X-3157880Y3849979D01*
X-3156762Y3852976D01*
X-3155086Y3855415D01*
X-3152902Y3857244D01*
X-3149701Y3859123D01*
X-3145485Y3860647D01*
X-3139846Y3861917D01*
X-3132328Y3863086D01*
X-3132328Y3865879D01*
X-3145942Y3864965D01*
X-3163316Y3864101D01*
X-3165551Y3864356D01*
X-3167075Y3865067D01*
X-3167888Y3866337D01*
X-3168142Y3868165D01*
X-3168142Y3909060D01*
X-3092958Y3909060D01*
X-3091434Y3914140D01*
X-3168142Y3914140D01*
X-3168142Y3948429D01*
X-3104134Y3948429D01*
X-3102610Y3953764D01*
X-3168142Y3953764D01*
X-3168142Y3985514D01*
X-3146552Y3983532D01*
X-3124657Y3982161D01*
X-3102864Y3981704D01*
X-3102356Y3985006D01*
X-3115513Y3986428D01*
X-3142589Y3990238D01*
X-3156102Y3992626D01*
X-3182010Y3997960D01*
X-3194050Y4000906D01*
X-3205175Y4003903D01*
X-3215233Y4007002D01*
G37*
G36*
X-2869184Y4009898D02*
G01*
X-2888488Y4001262D01*
X-2887522Y4000195D01*
X-2886100Y3999331D01*
X-2884170Y3998772D01*
X-2881630Y3998722D01*
X-2876346Y3990543D01*
X-2869895Y3981653D01*
X-2862884Y3972966D01*
X-2855722Y3965194D01*
X-2875534Y3966210D01*
X-2882595Y3981653D01*
X-2884170Y3986022D01*
X-2900934Y3975354D01*
X-2900019Y3974592D01*
X-2898444Y3973931D01*
X-2896412Y3973626D01*
X-2894076Y3973829D01*
X-2890723Y3968445D01*
X-2882392Y3956659D01*
X-2872587Y3944416D01*
X-2862173Y3932834D01*
X-2856992Y3927601D01*
X-2886456Y3929887D01*
X-2885338Y3934764D01*
X-2883865Y3939438D01*
X-2882188Y3943807D01*
X-2880360Y3947668D01*
X-2882646Y3948176D01*
X-2888894Y3943604D01*
X-2893618Y3938981D01*
X-2896870Y3934409D01*
X-2898851Y3930091D01*
X-2899765Y3926078D01*
X-2899664Y3922572D01*
X-2898800Y3919626D01*
X-2897225Y3917391D01*
X-2895193Y3916070D01*
X-2892856Y3915714D01*
X-2890316Y3916476D01*
X-2887726Y3918458D01*
X-2887776Y3922166D01*
X-2887218Y3925824D01*
X-2872689Y3921455D01*
X-2855722Y3916679D01*
X-2854147Y3914546D01*
X-2853334Y3913835D01*
X-2852420Y3913378D01*
X-2844546Y3927601D01*
X-2850337Y3928973D01*
X-2852166Y3929887D01*
X-2857093Y3935831D01*
X-2862173Y3943096D01*
X-2867304Y3951325D01*
X-2872232Y3960114D01*
X-2856230Y3954272D01*
X-2854147Y3951630D01*
X-2851912Y3949954D01*
X-2844038Y3965448D01*
X-2849626Y3966819D01*
X-2851404Y3967734D01*
X-2853994Y3971493D01*
X-2856636Y3976217D01*
X-2859227Y3981653D01*
X-2864002Y3993642D01*
X-2867812Y4005072D01*
G37*
G36*
X-2700020Y4006342D02*
G01*
X-2717800Y3991610D01*
X-2717038Y3990340D01*
X-2715920Y3989476D01*
X-2714498Y3988968D01*
X-2712720Y3988815D01*
X-2629662Y3988815D01*
X-2628138Y3993896D01*
X-2690368Y3993896D01*
G37*
G36*
X-2611628Y4005072D02*
G01*
X-2617368Y4000296D01*
X-2627630Y3991101D01*
X-2627071Y3989832D01*
X-2626055Y3988968D01*
X-2624683Y3988460D01*
X-2622804Y3988308D01*
X-2597658Y3988308D01*
X-2597658Y3943604D01*
X-2602992Y3943604D01*
X-2610866Y3954779D01*
X-2619756Y3946144D01*
X-2619248Y3947668D01*
X-2698750Y3947668D01*
X-2708148Y3959606D01*
X-2720035Y3949954D01*
X-2725420Y3945128D01*
X-2724810Y3943959D01*
X-2723794Y3943045D01*
X-2722372Y3942537D01*
X-2720594Y3942334D01*
X-2689860Y3942334D01*
X-2689860Y3866387D01*
X-2690012Y3864914D01*
X-2690672Y3863898D01*
X-2691993Y3863289D01*
X-2694178Y3863086D01*
X-2706522Y3863136D01*
X-2710230Y3863441D01*
X-2710891Y3863797D01*
X-2711958Y3865372D01*
X-2713126Y3869232D01*
X-2718054Y3891534D01*
X-2720086Y3891534D01*
X-2720594Y3864610D01*
X-2722930Y3863289D01*
X-2724454Y3861866D01*
X-2725216Y3860292D01*
X-2725420Y3858514D01*
X-2724302Y3854958D01*
X-2720390Y3852621D01*
X-2712872Y3851300D01*
X-2701036Y3850894D01*
X-2690368Y3850894D01*
X-2683002Y3851554D01*
X-2678684Y3853738D01*
X-2676652Y3857650D01*
X-2676144Y3863594D01*
X-2676144Y3942334D01*
X-2656586Y3942334D01*
X-2655722Y3928719D01*
X-2654147Y3916070D01*
X-2651810Y3904386D01*
X-2650236Y3898849D01*
X-2648407Y3893565D01*
X-2646324Y3888486D01*
X-2643886Y3883660D01*
X-2641142Y3879037D01*
X-2637993Y3874617D01*
X-2634488Y3870350D01*
X-2630627Y3866337D01*
X-2626309Y3862527D01*
X-2621534Y3858920D01*
X-2616301Y3855465D01*
X-2610612Y3852265D01*
X-2604414Y3849217D01*
X-2597658Y3846322D01*
X-2596388Y3848608D01*
X-2601722Y3852062D01*
X-2606649Y3855669D01*
X-2611170Y3859326D01*
X-2615234Y3863086D01*
X-2618994Y3866946D01*
X-2622346Y3870960D01*
X-2625394Y3875074D01*
X-2628087Y3879342D01*
X-2630525Y3883710D01*
X-2632608Y3888232D01*
X-2634437Y3892905D01*
X-2637383Y3902659D01*
X-2639415Y3913124D01*
X-2640736Y3924249D01*
X-2641447Y3936085D01*
X-2641600Y3942334D01*
X-2623566Y3942334D01*
X-2624582Y3941064D01*
X-2623972Y3939895D01*
X-2622956Y3939133D01*
X-2621635Y3938676D01*
X-2620010Y3938524D01*
X-2597658Y3938524D01*
X-2597658Y3893820D01*
X-2625090Y3900932D01*
X-2625598Y3898392D01*
X-2614930Y3892956D01*
X-2586634Y3879443D01*
X-2568956Y3871468D01*
X-2568346Y3869994D01*
X-2567381Y3868724D01*
X-2566212Y3867658D01*
X-2564892Y3866896D01*
X-2557780Y3884168D01*
X-2583688Y3890264D01*
X-2583688Y3938524D01*
X-2563114Y3938524D01*
X-2561844Y3943604D01*
X-2583688Y3943604D01*
X-2583688Y3988308D01*
X-2561844Y3988308D01*
X-2560574Y3993387D01*
X-2602484Y3993387D01*
G37*
G36*
X-3357118Y3993896D02*
G01*
X-3363112Y3993591D01*
X-3368548Y3992727D01*
X-3373424Y3991356D01*
X-3377692Y3989476D01*
X-3381451Y3987088D01*
X-3384702Y3984244D01*
X-3387394Y3980992D01*
X-3389629Y3977335D01*
X-3391306Y3973322D01*
X-3392474Y3968953D01*
X-3393186Y3964279D01*
X-3393440Y3959351D01*
X-3393236Y3955186D01*
X-3392576Y3951122D01*
X-3391458Y3947109D01*
X-3389782Y3943045D01*
X-3387598Y3938828D01*
X-3384854Y3934460D01*
X-3381451Y3929786D01*
X-3372764Y3919372D01*
X-3361232Y3906875D01*
X-3331464Y3875786D01*
X-3399028Y3875786D01*
X-3399028Y3860800D01*
X-3319018Y3860800D01*
X-3319018Y3872992D01*
X-3348482Y3906265D01*
X-3355136Y3914140D01*
X-3360877Y3921455D01*
X-3365703Y3928262D01*
X-3369614Y3934663D01*
X-3372612Y3940810D01*
X-3374745Y3946753D01*
X-3376015Y3952544D01*
X-3376422Y3958336D01*
X-3376015Y3964330D01*
X-3374745Y3969715D01*
X-3372764Y3974439D01*
X-3370021Y3978452D01*
X-3366566Y3981704D01*
X-3362502Y3984040D01*
X-3357778Y3985514D01*
X-3352546Y3986022D01*
X-3347821Y3985818D01*
X-3342132Y3985006D01*
X-3338322Y3970782D01*
X-3336391Y3964990D01*
X-3333953Y3961129D01*
X-3331057Y3958996D01*
X-3327654Y3958336D01*
X-3324606Y3958742D01*
X-3321964Y3959961D01*
X-3319779Y3961892D01*
X-3318001Y3964432D01*
X-3319678Y3971290D01*
X-3322574Y3977284D01*
X-3326536Y3982364D01*
X-3331362Y3986479D01*
X-3337001Y3989730D01*
X-3343249Y3992067D01*
X-3350006Y3993438D01*
G37*
G36*
X-3454908Y3993896D02*
G01*
X-3463594Y3993235D01*
X-3471062Y3991356D01*
X-3477361Y3988308D01*
X-3482390Y3984244D01*
X-3486302Y3979214D01*
X-3489045Y3973322D01*
X-3490671Y3966667D01*
X-3491229Y3959351D01*
X-3491026Y3955186D01*
X-3490366Y3951122D01*
X-3489198Y3947109D01*
X-3487521Y3943045D01*
X-3485337Y3938828D01*
X-3482543Y3934460D01*
X-3479139Y3929786D01*
X-3470452Y3919372D01*
X-3458972Y3906875D01*
X-3429000Y3875786D01*
X-3496564Y3875786D01*
X-3496564Y3860800D01*
X-3416554Y3860800D01*
X-3416554Y3872992D01*
X-3446018Y3906265D01*
X-3452672Y3914140D01*
X-3458413Y3921455D01*
X-3463239Y3928262D01*
X-3467150Y3934663D01*
X-3470148Y3940810D01*
X-3472281Y3946753D01*
X-3473551Y3952544D01*
X-3473958Y3958336D01*
X-3473551Y3964330D01*
X-3472281Y3969715D01*
X-3470300Y3974439D01*
X-3467557Y3978452D01*
X-3464153Y3981704D01*
X-3460140Y3984040D01*
X-3455517Y3985514D01*
X-3450336Y3986022D01*
X-3445357Y3985818D01*
X-3439668Y3985006D01*
X-3435858Y3970782D01*
X-3433927Y3964990D01*
X-3431489Y3961129D01*
X-3428593Y3958996D01*
X-3425190Y3958336D01*
X-3422243Y3958742D01*
X-3419652Y3959961D01*
X-3417417Y3961892D01*
X-3415792Y3964432D01*
X-3417417Y3971290D01*
X-3420211Y3977284D01*
X-3424123Y3982364D01*
X-3428949Y3986479D01*
X-3434587Y3989730D01*
X-3440887Y3992067D01*
X-3447694Y3993438D01*
G37*
G36*
X-3553714Y3993896D02*
G01*
X-3557524Y3993692D01*
X-3561283Y3993032D01*
X-3564991Y3991864D01*
X-3568649Y3990289D01*
X-3572154Y3988155D01*
X-3575507Y3985514D01*
X-3578707Y3982364D01*
X-3581654Y3978656D01*
X-3584397Y3974388D01*
X-3586835Y3969512D01*
X-3589020Y3964025D01*
X-3590848Y3957878D01*
X-3592322Y3951122D01*
X-3593439Y3943705D01*
X-3594100Y3935628D01*
X-3594354Y3926840D01*
X-3576828Y3926840D01*
X-3576624Y3937863D01*
X-3575964Y3947515D01*
X-3574897Y3955897D01*
X-3573475Y3963060D01*
X-3571748Y3969105D01*
X-3569766Y3974033D01*
X-3567480Y3978046D01*
X-3564991Y3981145D01*
X-3562350Y3983380D01*
X-3559556Y3984904D01*
X-3556660Y3985768D01*
X-3553714Y3986022D01*
X-3550615Y3985768D01*
X-3547618Y3984904D01*
X-3544722Y3983380D01*
X-3541979Y3981145D01*
X-3539439Y3978046D01*
X-3537102Y3974033D01*
X-3535019Y3969105D01*
X-3533241Y3963060D01*
X-3531819Y3955897D01*
X-3530752Y3947515D01*
X-3530092Y3937863D01*
X-3529837Y3926840D01*
X-3530092Y3915460D01*
X-3530752Y3905504D01*
X-3531819Y3896868D01*
X-3533241Y3889451D01*
X-3535019Y3883253D01*
X-3537102Y3878173D01*
X-3539439Y3874058D01*
X-3541979Y3870909D01*
X-3544722Y3868572D01*
X-3547618Y3867048D01*
X-3550615Y3866134D01*
X-3553714Y3865879D01*
X-3556660Y3866134D01*
X-3559556Y3867048D01*
X-3562350Y3868623D01*
X-3564991Y3870960D01*
X-3567480Y3874160D01*
X-3569766Y3878275D01*
X-3571748Y3883406D01*
X-3573475Y3889603D01*
X-3574897Y3896969D01*
X-3575964Y3905554D01*
X-3576624Y3915511D01*
X-3576828Y3926840D01*
X-3594354Y3926840D01*
X-3594100Y3917797D01*
X-3593439Y3909466D01*
X-3592322Y3901846D01*
X-3590848Y3894886D01*
X-3589020Y3888638D01*
X-3586835Y3883050D01*
X-3584397Y3878072D01*
X-3581654Y3873703D01*
X-3578707Y3869893D01*
X-3575507Y3866692D01*
X-3572154Y3864051D01*
X-3568649Y3861917D01*
X-3564991Y3860292D01*
X-3561283Y3859123D01*
X-3557524Y3858463D01*
X-3553714Y3858260D01*
X-3549802Y3858463D01*
X-3545890Y3859123D01*
X-3542080Y3860292D01*
X-3538372Y3861917D01*
X-3534816Y3864051D01*
X-3531412Y3866692D01*
X-3528212Y3869893D01*
X-3525215Y3873703D01*
X-3522472Y3878072D01*
X-3520033Y3883050D01*
X-3517849Y3888638D01*
X-3516020Y3894886D01*
X-3514547Y3901846D01*
X-3513480Y3909466D01*
X-3512820Y3917797D01*
X-3512565Y3926840D01*
X-3512820Y3935628D01*
X-3513480Y3943705D01*
X-3514547Y3951122D01*
X-3516020Y3957878D01*
X-3517849Y3964025D01*
X-3520033Y3969512D01*
X-3522472Y3974388D01*
X-3525215Y3978656D01*
X-3528212Y3982364D01*
X-3531412Y3985514D01*
X-3534816Y3988155D01*
X-3538372Y3990289D01*
X-3542080Y3991864D01*
X-3545890Y3993032D01*
X-3549802Y3993692D01*
G37*
G36*
X-3650742Y3993896D02*
G01*
X-3658819Y3993286D01*
X-3666032Y3991559D01*
X-3672332Y3988815D01*
X-3677615Y3985056D01*
X-3681882Y3980383D01*
X-3684981Y3974947D01*
X-3686911Y3968750D01*
X-3687572Y3961892D01*
X-3687114Y3956456D01*
X-3685794Y3951325D01*
X-3683558Y3946550D01*
X-3680510Y3942232D01*
X-3676650Y3938320D01*
X-3671925Y3934917D01*
X-3666439Y3932021D01*
X-3660140Y3929634D01*
X-3667709Y3927703D01*
X-3674160Y3925011D01*
X-3679596Y3921556D01*
X-3683965Y3917442D01*
X-3687368Y3912717D01*
X-3689756Y3907434D01*
X-3691178Y3901592D01*
X-3691636Y3895344D01*
X-3691280Y3890111D01*
X-3690213Y3885184D01*
X-3688486Y3880561D01*
X-3686149Y3876243D01*
X-3683152Y3872331D01*
X-3679647Y3868826D01*
X-3675583Y3865727D01*
X-3670960Y3863136D01*
X-3665931Y3861054D01*
X-3660394Y3859529D01*
X-3654501Y3858564D01*
X-3648201Y3858260D01*
X-3641140Y3858666D01*
X-3634638Y3859834D01*
X-3628745Y3861815D01*
X-3623513Y3864711D01*
X-3619093Y3868470D01*
X-3615436Y3873144D01*
X-3612692Y3878783D01*
X-3610864Y3885437D01*
X-3612642Y3888079D01*
X-3614826Y3890010D01*
X-3617366Y3891178D01*
X-3620262Y3891534D01*
X-3624173Y3890822D01*
X-3627018Y3888536D01*
X-3629151Y3884574D01*
X-3630929Y3878834D01*
X-3633978Y3867150D01*
X-3639769Y3866134D01*
X-3645154Y3865879D01*
X-3651808Y3866438D01*
X-3657701Y3868064D01*
X-3662730Y3870655D01*
X-3666947Y3874160D01*
X-3670249Y3878478D01*
X-3672636Y3883558D01*
X-3674110Y3889298D01*
X-3674618Y3895598D01*
X-3674160Y3902100D01*
X-3672738Y3907942D01*
X-3670350Y3912971D01*
X-3667048Y3917187D01*
X-3662781Y3920540D01*
X-3657600Y3923029D01*
X-3651453Y3924554D01*
X-3644392Y3925062D01*
X-3635248Y3925062D01*
X-3635248Y3933951D01*
X-3642868Y3933951D01*
X-3649065Y3934409D01*
X-3654602Y3935729D01*
X-3659479Y3937914D01*
X-3663543Y3940962D01*
X-3666845Y3944823D01*
X-3669284Y3949496D01*
X-3670808Y3954932D01*
X-3671315Y3961129D01*
X-3670909Y3966870D01*
X-3669690Y3971899D01*
X-3667709Y3976166D01*
X-3664915Y3979672D01*
X-3661460Y3982415D01*
X-3657295Y3984396D01*
X-3652418Y3985615D01*
X-3644900Y3986022D01*
X-3640124Y3985615D01*
X-3637534Y3985006D01*
X-3634486Y3973829D01*
X-3632657Y3968546D01*
X-3630422Y3964787D01*
X-3627424Y3962603D01*
X-3623310Y3961892D01*
X-3620465Y3962247D01*
X-3618026Y3963415D01*
X-3615994Y3965549D01*
X-3614420Y3968750D01*
X-3616248Y3974642D01*
X-3619042Y3979773D01*
X-3622700Y3984091D01*
X-3627170Y3987596D01*
X-3632250Y3990340D01*
X-3637940Y3992321D01*
X-3644137Y3993489D01*
G37*
G36*
X-3748278Y3993896D02*
G01*
X-3756355Y3993286D01*
X-3763568Y3991559D01*
X-3769868Y3988815D01*
X-3775151Y3985056D01*
X-3779418Y3980383D01*
X-3782517Y3974947D01*
X-3784447Y3968750D01*
X-3785108Y3961892D01*
X-3784650Y3956456D01*
X-3783329Y3951325D01*
X-3781094Y3946550D01*
X-3778046Y3942232D01*
X-3774186Y3938320D01*
X-3769461Y3934917D01*
X-3763975Y3932021D01*
X-3757676Y3929634D01*
X-3765245Y3927703D01*
X-3771696Y3925011D01*
X-3777132Y3921556D01*
X-3781501Y3917442D01*
X-3784904Y3912717D01*
X-3787292Y3907434D01*
X-3788714Y3901592D01*
X-3789172Y3895344D01*
X-3788816Y3890111D01*
X-3787749Y3885184D01*
X-3786022Y3880561D01*
X-3783685Y3876243D01*
X-3780688Y3872331D01*
X-3777183Y3868826D01*
X-3773119Y3865727D01*
X-3768496Y3863136D01*
X-3763467Y3861054D01*
X-3757929Y3859529D01*
X-3752037Y3858564D01*
X-3745737Y3858260D01*
X-3738727Y3858666D01*
X-3732276Y3859834D01*
X-3726383Y3861815D01*
X-3721150Y3864711D01*
X-3716680Y3868470D01*
X-3713022Y3873144D01*
X-3710228Y3878783D01*
X-3708400Y3885437D01*
X-3710178Y3888079D01*
X-3712311Y3890010D01*
X-3714902Y3891178D01*
X-3717798Y3891534D01*
X-3721709Y3890822D01*
X-3724554Y3888536D01*
X-3726687Y3884574D01*
X-3731768Y3867150D01*
X-3737457Y3866134D01*
X-3742944Y3865879D01*
X-3749548Y3866438D01*
X-3755339Y3868064D01*
X-3760317Y3870655D01*
X-3764483Y3874160D01*
X-3767785Y3878478D01*
X-3770172Y3883558D01*
X-3771646Y3889298D01*
X-3772154Y3895598D01*
X-3771696Y3902100D01*
X-3770274Y3907942D01*
X-3767886Y3912971D01*
X-3764584Y3917187D01*
X-3760317Y3920540D01*
X-3755136Y3923029D01*
X-3748989Y3924554D01*
X-3741928Y3925062D01*
X-3732784Y3925062D01*
X-3732784Y3933951D01*
X-3740404Y3933951D01*
X-3746652Y3934409D01*
X-3752240Y3935729D01*
X-3757117Y3937914D01*
X-3761181Y3940962D01*
X-3764483Y3944823D01*
X-3766870Y3949496D01*
X-3768344Y3954932D01*
X-3768851Y3961129D01*
X-3768445Y3966870D01*
X-3767226Y3971899D01*
X-3765245Y3976166D01*
X-3762501Y3979672D01*
X-3759047Y3982415D01*
X-3754932Y3984396D01*
X-3750157Y3985615D01*
X-3742588Y3986022D01*
X-3737914Y3985615D01*
X-3735324Y3985006D01*
X-3730294Y3968546D01*
X-3728059Y3964787D01*
X-3725113Y3962603D01*
X-3721100Y3961892D01*
X-3718204Y3962247D01*
X-3715664Y3963415D01*
X-3713581Y3965549D01*
X-3711956Y3968750D01*
X-3713784Y3974642D01*
X-3716629Y3979773D01*
X-3720337Y3984091D01*
X-3724757Y3987596D01*
X-3729888Y3990340D01*
X-3735578Y3992321D01*
X-3741775Y3993489D01*
G37*
G36*
X-3846576Y3993896D02*
G01*
X-3850386Y3993692D01*
X-3854145Y3993032D01*
X-3857853Y3991864D01*
X-3861460Y3990289D01*
X-3864965Y3988155D01*
X-3868267Y3985514D01*
X-3871417Y3982364D01*
X-3874363Y3978656D01*
X-3877106Y3974388D01*
X-3879545Y3969512D01*
X-3881678Y3964025D01*
X-3883507Y3957878D01*
X-3884980Y3951122D01*
X-3886047Y3943705D01*
X-3886708Y3935628D01*
X-3886962Y3926840D01*
X-3869690Y3926840D01*
X-3869486Y3937863D01*
X-3868826Y3947515D01*
X-3867759Y3955897D01*
X-3866337Y3963060D01*
X-3864610Y3969105D01*
X-3862628Y3974033D01*
X-3860342Y3978046D01*
X-3857853Y3981145D01*
X-3855212Y3983380D01*
X-3852418Y3984904D01*
X-3849522Y3985768D01*
X-3846576Y3986022D01*
X-3843477Y3985768D01*
X-3840479Y3984904D01*
X-3837584Y3983380D01*
X-3834841Y3981145D01*
X-3832301Y3978046D01*
X-3829964Y3974033D01*
X-3827881Y3969105D01*
X-3826103Y3963060D01*
X-3824681Y3955897D01*
X-3823614Y3947515D01*
X-3822954Y3937863D01*
X-3822700Y3926840D01*
X-3822954Y3915460D01*
X-3823614Y3905504D01*
X-3824681Y3896868D01*
X-3826103Y3889451D01*
X-3827881Y3883253D01*
X-3829964Y3878173D01*
X-3832301Y3874058D01*
X-3834841Y3870909D01*
X-3837584Y3868572D01*
X-3840479Y3867048D01*
X-3843477Y3866134D01*
X-3846576Y3865879D01*
X-3849522Y3866134D01*
X-3852418Y3867048D01*
X-3855212Y3868623D01*
X-3857853Y3870960D01*
X-3860342Y3874160D01*
X-3862628Y3878275D01*
X-3864610Y3883406D01*
X-3866337Y3889603D01*
X-3867759Y3896969D01*
X-3868826Y3905554D01*
X-3869486Y3915511D01*
X-3869690Y3926840D01*
X-3886962Y3926840D01*
X-3886708Y3917797D01*
X-3886047Y3909466D01*
X-3884980Y3901846D01*
X-3883507Y3894886D01*
X-3881678Y3888638D01*
X-3879545Y3883050D01*
X-3877106Y3878072D01*
X-3874363Y3873703D01*
X-3871417Y3869893D01*
X-3868267Y3866692D01*
X-3864965Y3864051D01*
X-3861460Y3861917D01*
X-3857853Y3860292D01*
X-3854145Y3859123D01*
X-3850386Y3858463D01*
X-3846576Y3858260D01*
X-3842664Y3858463D01*
X-3838752Y3859123D01*
X-3834942Y3860292D01*
X-3831234Y3861917D01*
X-3827678Y3864051D01*
X-3824274Y3866692D01*
X-3821074Y3869893D01*
X-3818077Y3873703D01*
X-3815334Y3878072D01*
X-3812895Y3883050D01*
X-3810711Y3888638D01*
X-3808882Y3894886D01*
X-3807409Y3901846D01*
X-3806342Y3909466D01*
X-3805682Y3917797D01*
X-3805428Y3926840D01*
X-3805682Y3935628D01*
X-3806342Y3943705D01*
X-3807409Y3951122D01*
X-3808882Y3957878D01*
X-3810711Y3964025D01*
X-3812895Y3969512D01*
X-3815334Y3974388D01*
X-3818077Y3978656D01*
X-3821074Y3982364D01*
X-3824274Y3985514D01*
X-3827678Y3988155D01*
X-3831234Y3990289D01*
X-3834942Y3991864D01*
X-3838752Y3993032D01*
X-3842664Y3993692D01*
G37*
G36*
X-3031998Y3977640D02*
G01*
X-3048254Y3965448D01*
X-3047187Y3964432D01*
X-2969260Y3964432D01*
X-2969260Y3943858D01*
X-3026664Y3943858D01*
X-3026664Y3964432D01*
X-3047187Y3964432D01*
X-3045510Y3963365D01*
X-3043377Y3962501D01*
X-3040888Y3961892D01*
X-3040888Y3935222D01*
X-3039567Y3934155D01*
X-3036519Y3932986D01*
X-3032709Y3932021D01*
X-3028950Y3931665D01*
X-3026664Y3931665D01*
X-3026664Y3938778D01*
X-2969260Y3938778D01*
X-2969260Y3934206D01*
X-2968193Y3933139D01*
X-2965399Y3931818D01*
X-2961538Y3930650D01*
X-2957322Y3930142D01*
X-2955290Y3930142D01*
X-2955290Y3976115D01*
X-2970276Y3969512D01*
X-3024886Y3969512D01*
G37*
G36*
X-3059176Y3932174D02*
G01*
X-3075686Y3919728D01*
X-3072942Y3917848D01*
X-3070809Y3916883D01*
X-3068320Y3916172D01*
X-3068320Y3864356D01*
X-3067659Y3857396D01*
X-3064916Y3852113D01*
X-3058668Y3848404D01*
X-3047746Y3846322D01*
X-3047288Y3849217D01*
X-3046577Y3851757D01*
X-3045510Y3853942D01*
X-3043936Y3855720D01*
X-3041853Y3857345D01*
X-3038906Y3858717D01*
X-3034842Y3859885D01*
X-3029458Y3860800D01*
X-3029458Y3863340D01*
X-3050286Y3862324D01*
X-3052064Y3862527D01*
X-3053232Y3863136D01*
X-3053892Y3864254D01*
X-3054096Y3865879D01*
X-3054096Y3918965D01*
X-2943098Y3918965D01*
X-2943098Y3851401D01*
X-2942082Y3849979D01*
X-2939338Y3848404D01*
X-2935579Y3847134D01*
X-2931414Y3846576D01*
X-2929128Y3846576D01*
X-2929128Y3930904D01*
X-2944622Y3924046D01*
X-3052318Y3924046D01*
G37*
G36*
X-2812034Y3922268D02*
G01*
X-2833116Y3919982D01*
X-2832608Y3918356D01*
X-2831490Y3916984D01*
X-2829560Y3915918D01*
X-2826766Y3915156D01*
X-2826766Y3906012D01*
X-2873756Y3906012D01*
X-2883408Y3918204D01*
X-2889707Y3913276D01*
X-2901188Y3903726D01*
X-2900578Y3902405D01*
X-2899511Y3901440D01*
X-2898140Y3900881D01*
X-2896362Y3900678D01*
X-2830830Y3900678D01*
X-2835198Y3896614D01*
X-2840075Y3892753D01*
X-2845358Y3889095D01*
X-2850946Y3885641D01*
X-2856890Y3882390D01*
X-2863088Y3879342D01*
X-2869438Y3876548D01*
X-2875991Y3873957D01*
X-2882544Y3871671D01*
X-2895701Y3867861D01*
X-2902204Y3866387D01*
X-2901950Y3864356D01*
X-2897835Y3862933D01*
X-2894330Y3860292D01*
X-2891586Y3856482D01*
X-2889758Y3851656D01*
X-2883306Y3854043D01*
X-2876956Y3856786D01*
X-2870809Y3859784D01*
X-2864866Y3863136D01*
X-2859125Y3866794D01*
X-2853588Y3870756D01*
X-2848356Y3875024D01*
X-2843377Y3879545D01*
X-2838704Y3884320D01*
X-2834386Y3889349D01*
X-2830372Y3894632D01*
X-2826766Y3900170D01*
X-2826766Y3850640D01*
X-2825648Y3849319D01*
X-2822752Y3847896D01*
X-2818841Y3846779D01*
X-2814574Y3846322D01*
X-2812034Y3846322D01*
X-2812034Y3890264D01*
X-2807258Y3885946D01*
X-2802178Y3881831D01*
X-2796794Y3877868D01*
X-2791155Y3874058D01*
X-2785262Y3870451D01*
X-2779115Y3866997D01*
X-2766161Y3860647D01*
X-2752394Y3855110D01*
X-2737866Y3850386D01*
X-2736342Y3853179D01*
X-2742996Y3856177D01*
X-2749448Y3859377D01*
X-2761843Y3866438D01*
X-2773273Y3874262D01*
X-2778658Y3878376D01*
X-2783738Y3882644D01*
X-2793085Y3891534D01*
X-2797251Y3896055D01*
X-2801112Y3900678D01*
X-2739136Y3900678D01*
X-2737866Y3906012D01*
X-2812034Y3906012D01*
G37*
G36*
X-3021330Y3912108D02*
G01*
X-3036316Y3900932D01*
X-3034693Y3899662D01*
X-2978658Y3899662D01*
X-2978658Y3878834D01*
X-3015996Y3878834D01*
X-3015996Y3899662D01*
X-3034693Y3899662D01*
X-3031693Y3898392D01*
X-3029458Y3897884D01*
X-3029458Y3869436D01*
X-3028340Y3868267D01*
X-3025597Y3866946D01*
X-3021939Y3865829D01*
X-3018282Y3865372D01*
X-3015996Y3865372D01*
X-3015996Y3873500D01*
X-2978658Y3873500D01*
X-2978658Y3866896D01*
X-2977642Y3865829D01*
X-2974949Y3864457D01*
X-2971241Y3863340D01*
X-2967228Y3862832D01*
X-2965450Y3862832D01*
X-2965450Y3911092D01*
X-2979674Y3904996D01*
X-3014472Y3904996D01*
G37*
M02*
