G04 Layer: TopLayer*
G04 EasyEDA v6.5.1, 2022-03-30 11:40:58*
G04 f7f897cffc8b4bbe8ffd8634bc846e31,7b35ab87edb5478c89a92b32cd25319b,10*
G04 Gerber Generator version 0.2*
G04 Scale: 100 percent, Rotated: No, Reflected: No *
G04 Dimensions in millimeters *
G04 leading zeros omitted , absolute positions ,4 integer and 5 decimal *
%FSLAX45Y45*%
%MOMM*%

%ADD10C,0.2540*%
%ADD11R,1.5200X1.5200*%
%ADD12C,1.5200*%
%ADD13C,1.6000*%
%ADD14R,1.6000X1.6000*%
%ADD15C,1.8796*%
%ADD16C,5.0000*%

%LPD*%
D10*
X-3302000Y5448300D02*
G01*
X-3302000Y5029200D01*
X-3048000Y5448300D02*
G01*
X-3048000Y5029200D01*
X-2032000Y5029200D02*
G01*
X-2032000Y4572000D01*
X-1308100Y3848100D01*
X-1002296Y3848100D01*
X-863600Y3986796D01*
D11*
G01*
X-3048000Y5448300D03*
D12*
G01*
X-3302000Y5448300D03*
G01*
X-3556000Y5448300D03*
D13*
G01*
X-863600Y4190796D03*
G01*
X-1117600Y4292777D03*
G01*
X-863600Y4394784D03*
D14*
G01*
X-1117600Y4496790D03*
D13*
G01*
X-863600Y3986784D03*
G01*
X-1117600Y4088790D03*
D15*
G01*
X-2032000Y5029200D03*
G01*
X-2286000Y5029200D03*
G01*
X-2540000Y5029200D03*
G01*
X-2794000Y5029200D03*
G01*
X-3048000Y5029200D03*
G01*
X-3302000Y5029200D03*
G01*
X-3556000Y5029200D03*
G01*
X-3810000Y5029200D03*
G01*
X-4064000Y5029200D03*
G01*
X-4318000Y5029200D03*
G01*
X-4572000Y5029200D03*
G01*
X-4826000Y5029200D03*
G01*
X-4826000Y3505200D03*
G01*
X-4572000Y3505200D03*
G01*
X-4318000Y3505200D03*
G01*
X-4064000Y3505200D03*
G01*
X-3810000Y3505200D03*
G01*
X-3556000Y3505200D03*
G01*
X-3302000Y3505200D03*
G01*
X-3048000Y3505200D03*
G01*
X-2794000Y3505200D03*
G01*
X-2540000Y3505200D03*
G01*
X-2286000Y3505200D03*
G01*
X-2032000Y3505200D03*
D16*
G01*
X-4204004Y5464403D03*
G01*
X-1016000Y5464403D03*
G01*
X-4204004Y3073400D03*
G01*
X-1016000Y3073400D03*
M02*
